<svg xmlns="http://www.w3.org/2000/svg" xmlns:xlink="http://www.w3.org/1999/xlink" version="1.1" x="0px" y="0px" viewBox="0 0 66 82.5" style="enable-background:new 0 0 66 66;" xml:space="preserve"><g><path d="M62.6,60.2V47.9c0-3.4-2.4-6.3-5.7-7V28.7c0-4.3-3.5-7.8-7.8-7.8h-6c0.8-2.1-1-4.1-2.8-5.4c1.7-2.8-0.5-4.7-3.8-5.2   c-0.3-5-3.1-6.4-3.3-6.4c-0.3-0.1-0.6-0.1-0.9,0c-0.3,0.2-0.5,0.4-0.5,0.8c-0.3,2.5-4.1,5-5.5,5.7c0,0-0.1,0-0.1,0.1   c-1.4,1-2.3,2.2-2.5,3.5c-0.2,1.1,0.1,2,0.3,2.6c-0.9,0.9-1.4,1.9-1.3,2.9c0,0.6,0.2,1.1,0.4,1.5h-6.4c-4.3,0-7.8,3.5-7.8,7.8v12.2   c-3.2,0.7-5.7,3.6-5.7,7v12.3H3c-0.6,0-1,0.4-1,1v0c0,0.6,0.4,1,1,1h60c0.6,0,1-0.4,1-1v0c0-0.6-0.4-1-1-1H62.6z M55,35.7H11v-5.3   l2.1-2c0.5-0.5,1.3-0.5,1.8-0.1l3,2.4c1.6,1.3,3.5,0.9,4.9-0.7c1.4-1.7,3.2-1.7,5.3,0c3.1,2.4,7.2,1.5,9.3-1.5   c0.6-0.9,1.5-0.7,3,0.2c1.6,0.9,3.2,1.1,4.6-0.2c0.7-0.7,1.8-0.5,2.2,0.4l0.5,1c0.9,1.8,3.1,2.5,4.8,1.4l2.4-1.5V35.7z M55,37.7v3   H11v-3H55z M24.8,19.3c0-0.7,0.6-1.3,1.2-1.8c0.2-0.2,0.4-0.4,0.4-0.7c0-0.3,0-0.5-0.2-0.7c0,0-0.6-0.9-0.4-1.9   c0.1-0.8,0.7-1.5,1.6-2.1c0.6-0.3,4.6-2.5,6.1-5.6c0.5,0.7,1.1,2,1.2,4.2C33.9,11.4,32,13,29.4,13c-0.6,0-1,0.4-1,1s0.4,1,1,1   c3.3,0,5.7-1.9,6.5-2.7c3.6,0.4,3.3,1.5,2.2,2.9c-0.2,0.2-3.6,3.7-7.6,3.7c-0.6,0-1,0.4-1,1s0.4,1,1,1c3.9,0,7.2-2.6,8.5-3.8   c1.1,0.8,2.3,2,2.3,2.9c0,0.3-0.3,0.7-0.8,1H25.8C25.4,20.6,24.8,20,24.8,19.3z M16.8,22.9h32.3c2.8,0,5.1,2,5.7,4.7l-3.3,2   c-0.7,0.4-1.6,0.2-2-0.6l-0.5-1c-1-2.1-3.7-2.6-5.4-1c-0.7,0.6-1.4,0.4-2.2-0.1c-1.1-0.6-3.8-2-5.6,0.4c-3.6,4-6.2,1.3-6.7,1.1   c0.3,0.1-4.3-3.7-7.8,0.4c-0.7,0.7-1.3,1.1-2.1,0.5l-3-2.4c-1.3-1-3.2-1-4.4,0.2l-0.6,0.6C11.7,24.9,14,22.9,16.8,22.9z M10.5,42.7   h44.9c2.8,0,5.2,2.3,5.2,5.2v2.6H59c-2.2,0-4.1,1.8-4.1,4.1c0,0.4-0.3,0.7-0.7,0.7s-0.7-0.3-0.7-0.7v-6.7c0-1.5-1.2-2.7-2.7-2.7   s-2.7,1.2-2.7,2.7v5.9c0,0.9-0.7,1.6-1.6,1.6s-1.6-0.7-1.6-1.6v-3.6c0-1.9-1.6-3.5-3.5-3.5s-3.5,1.6-3.5,3.5v2.6   c0,0.9-0.7,1.6-1.6,1.6c-0.9,0-1.6-0.7-1.6-1.6v-1.2c0-2.3-1.9-4.2-4.2-4.2s-4.2,1.9-4.2,4.2v2.1c0,0.9-0.7,1.6-1.6,1.6   s-1.6-0.7-1.6-1.6v-6.1c0-2-1.6-3.6-3.6-3.6S16,45.5,16,47.5v3.6c0,0.7-0.5,1.2-1.2,1.2s-1.2-0.5-1.2-1.2c0-2.4-1.9-4.3-4.3-4.3   H5.5C5.9,44.5,8,42.7,10.5,42.7z M5.4,48.9h3.9c1.3,0,2.3,1,2.3,2.3c0,1.8,1.4,3.2,3.2,3.2s3.2-1.4,3.2-3.2v-3.6   c0-0.9,0.7-1.6,1.6-1.6s1.6,0.7,1.6,1.6v6.1c0,2,1.6,3.6,3.6,3.6s3.6-1.6,3.6-3.6v-2.1c0-1.2,1-2.2,2.2-2.2s2.2,1,2.2,2.2v1.2   c0,2,1.6,3.6,3.6,3.6s3.6-1.6,3.6-3.6v-2.6c0-0.8,0.7-1.5,1.5-1.5s1.5,0.7,1.5,1.5v3.6c0,2,1.6,3.6,3.6,3.6s3.6-1.6,3.6-3.6v-5.9   c0-0.4,0.3-0.7,0.7-0.7s0.7,0.3,0.7,0.7v6.7c0,1.5,1.2,2.7,2.7,2.7S57,56,57,54.5c0-1.1,0.9-2.1,2.1-2.1h1.6v7.7H5.4V48.9z"/></g><text x="0" y="81" fill="#000000" font-size="5px" font-weight="bold" font-family="'Helvetica Neue', Helvetica, Arial-Unicode, Arial, Sans-serif">Created by ProSymbols</text><text x="0" y="86" fill="#000000" font-size="5px" font-weight="bold" font-family="'Helvetica Neue', Helvetica, Arial-Unicode, Arial, Sans-serif">from the Noun Project</text></svg>