<svg xmlns="http://www.w3.org/2000/svg" version="1.1" viewBox="-5.0 -10.0 110.0 135.0">
 <path d="m89.523 54.984c0.14062-2.8867-2.793-5.2383-4.8438-6.832 2.3203-1.9062 2.5117-3.9219 2.207-5.3438-0.64062-3.0234-3.9609-5.6875-7.0469-6.6914 0.042968-0.035157 0.09375-0.0625 0.13672-0.097657 2.7773-2.25 3.043-4.5781 2.7773-6.1367-0.43359-2.5312-2.6211-4.8906-5.6445-6.207 0.30078-0.47266 0.51953-0.96484 0.55469-1.457 0.035157-0.49609-0.11328-0.94141-0.43359-1.2891-1.4219-1.5391-2.6914-0.43359-3.7109 0.45703-0.38672 0.33594-0.78516 0.68359-1.2383 0.98828-1.9805 1.3281-8.0703 1.7617-13.574 0.96875-0.76172-0.10938-1.4609-0.10156-2.0781-0.007812-0.20312-1.3789 0.40625-2.7305 1.0039-4.0391 0.55469-1.2227 1.1289-2.4883 1.0039-3.7539-0.30078-3.0703-4.0977-5.0117-7.5156-5.2812-3.3086-0.25781-7.2383 0.97656-8.3477 5.2344-0.015626 0.054687-0.019532 0.10547-0.019532 0.16016 0 0.92578 0.38281 2.25 0.78906 3.6484 0.38281 1.3203 0.83594 2.8789 0.86719 3.9297-0.80078-0.33203-1.8789-0.44141-3.1055-0.26562-5.5039 0.79297-11.594 0.35938-13.574-0.96875-0.45703-0.30469-0.85547-0.65234-1.2383-0.98828-1.0195-0.89062-2.2891-2-3.7109-0.45703-0.32031 0.34766-0.46875 0.79297-0.43359 1.2891 0.035156 0.48828 0.25391 0.98438 0.55469 1.457-3.0273 1.3125-5.2109 3.6758-5.6445 6.207-0.26562 1.5586 0 3.8867 2.7773 6.1367 0.042969 0.035157 0.09375 0.0625 0.13672 0.097657-3.0859 1.0039-6.4062 3.6719-7.0469 6.6914-0.30469 1.4219-0.11328 3.4375 2.207 5.3438-2.0508 1.5938-4.9844 3.9453-4.8438 6.832 0.0625 1.2969 0.76172 2.5312 2.0703 3.6875-1.9336 5.1016-1.6602 9.9336 0.80078 13.309 1.0156 1.3906 2.3672 2.457 3.9922 3.1875-0.54297 4.6992 1.7656 10.895 6.6484 13.141 2.0703 0.95312 4.1133 1.4258 6.1172 1.4258 2.4492 0 4.8438-0.71094 7.1602-2.1289 3.4766-2.1289 6.1055-5.4414 7.8477-7.6367 0.41016-0.51562 0.84375-1.0625 1.2148-1.4922-0.078125 2.2148-0.011719 3.8516 0.97656 4.8828 0.69531 0.72656 1.7539 1.0625 3.3359 1.0625 0.74219 0 1.3477-0.23438 1.8086-0.69531 0.9375-0.9375 1.0664-2.5977 1.0781-4.5664 0.38281 0.42188 0.84766 0.98438 1.2773 1.5117 1.7539 2.1367 4.4023 5.3672 7.8945 7.4297 2.293 1.3516 4.6562 2.0273 7.0703 2.0273 2.0469 0 4.1289-0.48438 6.2383-1.4531 4.8867-2.2461 7.1914-8.4453 6.6484-13.141 1.625-0.72656 2.9766-1.7969 3.9922-3.1875 2.4648-3.375 2.7383-8.207 0.80078-13.309 1.3086-1.1562 2.0078-2.3906 2.0703-3.6875zm-1.2773-0.0625c-0.0625 1.3125-1.1016 2.6133-3.0859 3.8594-6.8008 4.2773-20.121 2.8086-27.125 0.10156-2.3984-0.92578-3.0781-1.9023-2.9492-2.332 0.16406-0.55859 1.8359-1.3164 5.1094-0.625 7.8867 1.6602 18.43 2.332 22.43 0.30469 1.1367-0.57812 1.7656-1.3086 1.8672-2.1758 0.17187-1.4375-1.1289-2.8008-2.7031-4.1758 0.625-0.28125 1.2344-0.58984 1.8047-0.94922 0.042969 0.035156 0.085938 0.066406 0.12891 0.10156 1.8438 1.4297 4.6328 3.5898 4.5234 5.8906zm-9.1289 13.496c-2.5234 1.1367-5.9297 1.0898-9.1055-0.125-2.3789-0.91016-5.5859-2.8359-7.9648-6.8555 3.0625 0.73438 6.4609 1.1992 9.7227 1.2969 0.42188 0.011719 0.86328 0.019531 1.3164 0.019531 2.7422 0 5.9766-0.27734 8.9375-1.1953 1.0078 3.0273-0.035157 5.5703-2.9023 6.8633zm-24.469-14.602c-0.24609-0.17578-0.38281-0.33984-0.40234-0.48828-0.050782-0.37109 0.48828-1.0234 0.96094-1.5977 0.54297-0.66016 1.1406-1.3867 1.4336-2.2305 0.011719 0.003906 0.023437 0.011719 0.039063 0.015625 3.7461 1.3867 8.8164 2.2539 13.562 2.3164 0.19141 0.003907 0.38281 0.003907 0.58203 0.003907 2.8789 0 6.4609-0.30078 9.6484-1.4219 0.007813 0.007813 0.011719 0.019532 0.023438 0.027344 1.0703 0.91016 2.8555 2.4297 2.7344 3.4609-0.050781 0.41406-0.44531 0.81641-1.1797 1.1875-3.2305 1.6367-12.715 1.4531-21.59-0.41406-1.8984-0.39844-3.5625-0.37109-4.7617 0-0.30078-0.28516-0.64062-0.57031-1.0469-0.85938zm30.988-10.738c0.375 1.7617-0.51562 3.3555-2.6445 4.7305-6.4844 4.1875-19.191 2.9883-25.871 0.51562-2.2539-0.83594-2.9023-1.7344-2.7891-2.1328 0.14844-0.53516 1.7266-1.2773 4.8555-0.66797 7.5352 1.4648 17.605 1.9453 21.43-0.058594 1.1016-0.57422 1.707-1.2969 1.7969-2.1445 0.17578-1.6523-1.668-3.1836-3.293-4.5391-0.51562-0.42969-1.0781-0.89844-1.4453-1.2812 0.26172-0.13672 0.51953-0.26953 0.77344-0.42188 2.8984 0.54688 6.5977 3.2188 7.1914 6zm-19.672-3.1133c0.71094 0 1.418-0.019532 2.1211-0.0625 2.4375-0.14844 5.5469-0.62109 8.3906-1.8359 0.41797 0.52344 1.0859 1.0781 1.8281 1.6953 1.2422 1.0312 2.9414 2.4492 2.8398 3.4219-0.042969 0.39453-0.41797 0.78125-1.1172 1.1445-3.0781 1.6094-12.125 1.582-20.594-0.066406-1.7344-0.33594-3.2656-0.30859-4.3984 0.019531-0.089844-1.375 1.0039-2.4766 2.0703-3.5469 0.55469-0.55469 1.0469-1.0547 1.3516-1.5781 2.3008 0.52344 4.9141 0.80859 7.5156 0.80859zm15.527-9.8633c0.30078 1.7539-0.50391 3.457-2.3203 4.9297-5.6875 4.6016-16.828 4.2656-22.68 2.2539-1.8125-0.625-2.5117-1.4414-2.3906-1.9336 0.15234-0.63281 1.5977-1.3984 4.2148-1.0195 6.6602 0.96094 15.57 0.75391 18.957-1.5156 0.98047-0.65625 1.5117-1.4297 1.5859-2.2969 0.14062-1.6797-1.4375-3.1758-2.8281-4.5-0.1875-0.17969-0.37109-0.35156-0.54297-0.51953 0.25781-0.22656 0.53516-0.48828 0.80469-0.77734 2.7617 1.1055 4.832 3.2188 5.2031 5.3789zm-24.438-0.35937c0.28516-0.57422 0.55859-1.1289 0.75391-1.6719 1.9336 0.52734 4.2383 0.82031 6.5273 0.82031 0.53906 0 1.082-0.015625 1.6133-0.046875 2.4883-0.15234 5.8984-0.74219 8.5156-2.5625 0.21484 0.21484 0.44141 0.43359 0.68359 0.66016 1.125 1.0664 2.5234 2.3984 2.4336 3.4648-0.039062 0.46875-0.375 0.91016-1.0234 1.3438-2.6953 1.8086-10.629 2.3828-18.062 1.3125-0.9375-0.13672-1.8008-0.13281-2.5703-0.027344 0.046875-1.0938 0.59375-2.207 1.1328-3.293zm1.4648-5.125c5.0742 0.73047 11.871 0.57031 14.469-1.1719 0.52344-0.35156 0.97266-0.74219 1.3672-1.0859 1.2617-1.1016 1.4336-1.0938 1.9336-0.55469 0.054688 0.0625 0.11328 0.14844 0.097657 0.32812-0.023438 0.30859-0.24219 0.78516-0.73047 1.3789-0.015625 0.015625-0.027344 0.035156-0.042969 0.054687-0.33203 0.39453-0.77734 0.83203-1.3672 1.3125-4.2656 3.4531-12.633 3.1953-17.035 1.6836-1.3594-0.46875-1.7734-1.0352-1.7109-1.2852 0.070312-0.28906 0.75-0.73047 2.0508-0.73047 0.29297 0 0.61719 0.023437 0.96875 0.074219zm-13.727 6.3906c0.58203 0.90625 0.79688 1.2539 0.29297 1.8672-0.96875-0.30078-2.2031-0.38281-3.582-0.1875-7.4336 1.0703-15.367 0.49609-18.062-1.3125-0.64844-0.4375-0.98438-0.875-1.0234-1.3438-0.089844-1.0664 1.3086-2.3945 2.4336-3.4648 0.24219-0.23047 0.46875-0.44531 0.68359-0.66016 2.6133 1.8203 6.0234 2.4102 8.5156 2.5625 0.53516 0.03125 1.0742 0.046875 1.6133 0.046875 2.7031 0 5.4336-0.40234 7.543-1.125 0.125-0.042969 0.23438-0.085937 0.34766-0.13281-0.023438 1.7383 0.6875 2.8789 1.2461 3.75zm-21.082-9.5781c0.20703-0.22266 0.35547-0.35547 0.55078-0.35547 0.27734 0 0.64062 0.26562 1.3828 0.91016 0.39453 0.34375 0.84375 0.73828 1.3672 1.0859 2.5977 1.7422 9.3945 1.9062 14.469 1.1719 1.9297-0.27734 2.9336 0.30078 3.0195 0.65625 0.058594 0.25-0.35156 0.81641-1.7109 1.2852-4.4023 1.5117-12.77 1.7695-17.035-1.6836-0.58984-0.47656-1.0352-0.91797-1.3672-1.3125-0.015625-0.019531-0.027344-0.039062-0.042969-0.054688-0.48828-0.59375-0.71094-1.0703-0.73047-1.3789-0.011719-0.17969 0.042969-0.26953 0.097657-0.32812zm-5.2031 8.2969c0.37109-2.1602 2.4414-4.2734 5.2031-5.3789 0.26953 0.28906 0.54297 0.54688 0.80469 0.77734-0.17188 0.16797-0.35156 0.33984-0.54297 0.51953-1.3906 1.3203-2.9688 2.8203-2.8281 4.5 0.074219 0.86719 0.60547 1.6406 1.5859 2.2969 3.3867 2.2695 12.297 2.4766 18.957 1.5156 2.6133-0.37891 4.0586 0.38672 4.2148 1.0195 0.12109 0.49609-0.57812 1.3125-2.3906 1.9375-5.8555 2.0117-16.992 2.3477-22.68-2.2539-1.8203-1.4727-2.6211-3.1758-2.3203-4.9297zm27.418 13.117c-0.25391 0.39453-0.47656 0.78125-0.68359 1.1562-1.1562-0.40625-2.793-0.47656-4.6719-0.10938-8.4688 1.6484-17.516 1.6758-20.594 0.066406-0.69922-0.36719-1.0742-0.75-1.1172-1.1445-0.10156-0.97266 1.5977-2.3867 2.8398-3.4219 0.74219-0.61719 1.4102-1.1719 1.8281-1.6953 2.8438 1.2109 5.9531 1.6875 8.3906 1.8359 0.69922 0.042969 1.4102 0.0625 2.1211 0.0625 3.0156 0 6.0508-0.38281 8.5938-1.082 0.36328 1.3672 1.4492 2.3711 2.2812 3.1328 0.42188 0.38281 1.125 1.0273 1.0117 1.1992zm-31.562-0.14062c0.58984-2.7812 4.293-5.4531 7.1914-6 0.25 0.15234 0.51172 0.28516 0.77344 0.42188-0.36719 0.38281-0.92969 0.85156-1.4453 1.2812-1.625 1.3516-3.4688 2.8867-3.293 4.5391 0.089844 0.84766 0.69531 1.5664 1.7969 2.1445 3.8242 2 13.898 1.5234 21.43 0.058594 3.1289-0.60938 4.7031 0.13672 4.8555 0.66797 0.11328 0.40234-0.53906 1.3008-2.7891 2.1328-6.6797 2.4727-19.387 3.6719-25.871-0.51562-2.1289-1.375-3.0195-2.9648-2.6445-4.7305zm31.391 10.766c-0.30078 0.38281-0.55859 0.74219-0.79297 1.0977-1.1953-0.61328-3.1445-0.74219-5.4219-0.26172-8.875 1.8711-18.359 2.0547-21.59 0.41406-0.73438-0.37109-1.1289-0.76953-1.1797-1.1875-0.12109-1.0273 1.668-2.5508 2.7344-3.4609 0.007813-0.007812 0.011719-0.019531 0.023438-0.027343 3.1875 1.125 6.7695 1.4219 9.6484 1.4219 0.19922 0 0.39062 0 0.58203-0.003906 4.7461-0.066407 9.8164-0.92969 13.562-2.3164 0.18359-0.070312 0.35547-0.13672 0.52344-0.20703 0.13281 1.5469 0.92969 2.5312 1.4961 3.2188 0.69531 0.83984 0.70312 0.94922 0.41406 1.3125zm-34 1.082c-0.11328-2.3008 2.6758-4.4609 4.5234-5.8906 0.046875-0.035156 0.085937-0.066406 0.12891-0.10156 0.57031 0.35938 1.1758 0.66797 1.8047 0.94922-1.5781 1.375-2.875 2.7383-2.7031 4.1758 0.10156 0.86719 0.73047 1.5977 1.8711 2.1758 4.0039 2.0273 14.543 1.3555 22.43-0.30469 3.2734-0.69141 4.9414 0.066406 5.1094 0.625 0.12891 0.42969-0.55078 1.4062-2.9492 2.332-7.0039 2.707-20.324 4.1758-27.125-0.10156-1.9844-1.2461-3.0234-2.5469-3.0859-3.8594zm6.2266 6.6328c2.9609 0.91797 6.1953 1.1953 8.9375 1.1953 0.45312 0 0.89453-0.007812 1.3164-0.019531 3.2617-0.097656 6.6602-0.5625 9.7227-1.2969-2.3789 4.0195-5.5859 5.9453-7.9648 6.8555-3.1758 1.2148-6.582 1.2617-9.1055 0.125-2.8672-1.293-3.9102-3.8359-2.9023-6.8633zm26.133 17.621c-2.7422 3.4531-7.3633 9.2734-14.023 9.2734-1.7188 0-3.5742-0.38672-5.5664-1.3047-4.1172-1.8945-6.2969-7.2969-5.9531-11.512 1.1875 0.37891 2.4961 0.58594 3.8984 0.64062 0.10938 2.0312 0.77344 3.6016 1.9883 4.6641 1.3984 1.2266 3.2227 1.5273 4.6797 1.5273 0.55078 0 1.0508-0.042969 1.457-0.097656 2.1133-0.27734 4.3164-1.8242 5.6094-3.9414 1.1055-1.8086 1.3867-3.7344 0.78516-5.418 0 0 0-0.003907-0.003906-0.003907v-0.003906c-0.015625-0.039062-0.042969-0.070312-0.066406-0.10547-0.023438-0.035157-0.039063-0.074219-0.066407-0.10547-0.027343-0.03125-0.0625-0.046875-0.09375-0.070313-0.035156-0.023437-0.066406-0.054687-0.10156-0.074218-0.035156-0.015626-0.074219-0.019532-0.10938-0.027344-0.042969-0.011719-0.082031-0.027344-0.125-0.03125-0.039063-0.003906-0.082031 0.011718-0.125 0.019531s-0.082031 0.003906-0.12109 0.019531c0 0-0.003906 0-0.003906 0.003906h-0.003906c-3.2773 1.2266-7.2266 2.0156-11.738 2.3477-4.5391 0.33203-8.0117-0.96484-10.043-3.75-2.1133-2.8945-2.3711-7.2344-0.76953-11.734 0.17969 0.125 0.35156 0.25 0.54687 0.37109 0.80469 0.50781 1.6836 0.91797 2.5938 1.2695-1.2344 3.6719 0.10547 6.875 3.6055 8.4492 1.3203 0.59375 2.9336 0.92187 4.6797 0.92187 5.0234 0 11.145-2.7109 14.613-9.5156 0.97656-0.27734 1.9102-0.58203 2.7734-0.91406 0.61719-0.23828 1.1289-0.48047 1.5664-0.72656 0.29297 0.72266 0.8125 1.2656 1.2539 1.7227 0.86719 0.89844 1.2266 1.3438 0.59766 2.418-0.28125 0.48047-0.52344 0.91406-0.72656 1.3125-0.83594 1.7148-3.7188 3.9062-5.4766 5.2383-1.7266 1.3047-2.1328 1.6172-2.0352 2.1758 0.046875 0.25781 0.23047 0.46484 0.48828 0.54688 0.35938 0.11328 0.73047 0.16016 1.1055 0.16016 2.293 0 4.7969-1.8359 5.875-2.7227l0.035156-0.027344c0.10938-0.089843 0.16797-0.21094 0.20312-0.33594 0.57031 0.69141 1.1602 1.707 1.1602 4.2305 0 0.94141-0.03125 1.8008-0.0625 2.6094-0.5625 0.34375-1.2109 1.1406-2.2891 2.4961zm-8.168-5.1211c0.21484 1.1641-0.066406 2.457-0.83203 3.7031-1.0859 1.7734-2.9688 3.1172-4.6875 3.3398-1.25 0.16406-3.5781 0.23438-5.1289-1.125-0.92578-0.8125-1.4258-2.0703-1.5312-3.6992 0.25-0.007813 0.49609-0.007813 0.75-0.027344 4.3359-0.32031 8.1719-1.0586 11.426-2.1914zm8.2344-6.0977c0.054687 0.41016 0.22266 0.75391 0.47266 1.0938-0.125 0.007812-0.25 0.046874-0.35547 0.13281l-0.039063 0.03125c-0.69531 0.57031-2.7656 2.1602-4.5859 2.4023 0.23438-0.17969 0.49219-0.375 0.73438-0.5625 1.125-0.85156 2.5586-1.9453 3.7695-3.0977zm7.3633 14.871c-0.13672 0.13672-0.37891 0.32031-0.90234 0.32031-1.207 0-1.9766-0.21094-2.4102-0.66797-0.76562-0.80078-0.6875-2.5703-0.57812-5.0234 0.042968-1.0039 0.09375-2.1406 0.09375-3.3906 0-3.4336-1.0625-4.6211-1.7656-5.4102-0.59766-0.67188-0.91406-1.0312 0.28516-3.2969 0.019531-0.039062 0.046875-0.082031 0.0625-0.12109 0.17578-0.32813 0.37891-0.69141 0.62109-1.1016 1.1406-1.9531 0.074219-3.0586-0.78516-3.9492-0.47656-0.49219-0.91016-0.96875-1.0625-1.582 1.2227-1.0312 1.168-1.9648 1.0352-2.4141-0.042969-0.14453-0.125-0.27344-0.20312-0.40234 0.23438-0.36328 0.49609-0.74609 0.82031-1.1523 0.97656-1.2305 0.19531-2.168-0.42969-2.9219-0.60938-0.73438-1.2812-1.5664-1.2188-3.0195 1.9727-1.1641 1.9375-2.332 1.793-2.8516-0.089844-0.32031-0.28906-0.59375-0.55078-0.83203 0.19922-0.35938 0.41016-0.72266 0.65234-1.1055 0.6875-1.0781-0.33203-2.0078-1.2266-2.8281-0.79297-0.72656-1.6797-1.5352-1.9297-2.5586 0.023438-0.007813 0.050781-0.015626 0.078125-0.023438 3.4688-1.1914 3.3398-2.9375 3.2188-3.4453-0.11719-0.49219-0.44141-0.90234-0.89062-1.2305 0.82422-1.2344 0.19141-2.2305-0.37891-3.125-0.59766-0.93359-1.2617-1.9922-0.97656-3.8008 0.99609-0.79297 0.92188-1.6211 0.84766-1.9219-0.035157-0.14062-0.09375-0.27344-0.16406-0.39844 0.31641-1.3086-0.25391-3.3008-0.81641-5.2422-0.35156-1.2109-0.71484-2.457-0.73828-3.2109 1.1836-4.3125 5.6445-4.3047 6.9883-4.1992 3.3008 0.26172 6.1484 2.1133 6.3477 4.1328 0.089844 0.92578-0.38672 1.9805-0.89453 3.1016-0.66797 1.4727-1.4023 3.1211-1.0664 4.9336-0.59375 0.29297-1.0078 0.71875-1.1406 1.2617-0.097656 0.40625-0.19922 1.7695 2.332 2.7148-0.17188 0.46484-0.41797 0.96484-0.67969 1.4883-0.625 1.2578-1.3203 2.6641-1.2695 4.1602-0.94922 0.35547-1.5977 0.94141-1.7852 1.7148-0.12109 0.50781-0.25 2.25 3.2188 3.4453 0.33594 0.11719 0.6875 0.22656 1.0469 0.32812-0.25 0.31641-0.58594 0.66406-0.93359 1.0117-1.1992 1.207-2.8125 2.8281-2.3789 5.0117-0.35938 0.27344-0.60156 0.60547-0.71484 1-0.15625 0.5625-0.18359 1.8906 2.3438 3.1484-0.19531 0.65625-0.70703 1.3047-1.2227 1.9297-0.70312 0.85156-1.3633 1.6562-1.2422 2.5781 0.070313 0.51562 0.38281 0.97266 0.92969 1.3594 0.21094 0.14844 0.39844 0.29297 0.57422 0.4375-0.29297 0.25-0.51953 0.54297-0.62109 0.88672-0.14453 0.48047-0.19141 1.5156 1.3086 2.6289-0.12109 0.17578-0.25 0.35547-0.38672 0.53906-0.55078 0.75-1.1211 1.5312-1.2109 2.457-0.097656 1 0.41797 1.9336 0.91016 2.8359 0.23047 0.41797 0.45703 0.83203 0.63281 1.2539 0.53125 1.2734 0.58203 2.625-1.1992 4.4258-1.6953 1.7148-1.6836 4.7539-1.6719 7.4375 0.007813 1.9492 0.015625 3.9609-0.70312 4.6875zm8.4258-11.227c0.16016 0.13281 0.32812 0.26953 0.48828 0.40234-1.5859-0.15625-3.3906-1.3867-4.3203-2.1055 0.25781-0.46875 0.41406-0.91797 0.5-1.3477 1.043 1.1719 2.3438 2.2383 3.332 3.0508zm25.648-0.003907c-2.0312 2.7852-5.5039 4.082-10.043 3.75-4.5117-0.33203-8.4609-1.1211-11.738-2.3477h-0.003907s-0.003906 0-0.003906-0.003906c-0.042969-0.015625-0.082031-0.011719-0.125-0.019531-0.039063-0.003907-0.082031-0.019531-0.12109-0.015625-0.046875 0.003906-0.085937 0.019531-0.12891 0.03125-0.035156 0.007812-0.074219 0.011718-0.10938 0.027344-0.039062 0.019531-0.070312 0.046874-0.10156 0.074218-0.03125 0.023438-0.066407 0.039063-0.09375 0.070313-0.027344 0.03125-0.046876 0.070312-0.066407 0.10938-0.019531 0.035156-0.050781 0.0625-0.0625 0.10156v0.003906s0 0.003907-0.003906 0.003907c-0.60156 1.6836-0.32422 3.6055 0.78516 5.418 1.2969 2.1172 3.4961 3.6641 5.6094 3.9414 0.40234 0.054687 0.90234 0.097656 1.457 0.097656 1.457 0 3.2852-0.30078 4.6797-1.5273 1.2148-1.0664 1.875-2.6367 1.9883-4.6641 1.4023-0.050782 2.7148-0.25781 3.8984-0.64062 0.34766 4.2188-1.832 9.6211-5.9531 11.512-2.0391 0.9375-3.9336 1.332-5.6875 1.332-6.625 0-11.246-5.6328-13.996-8.9844-1.0664-1.2969-1.7109-2.0625-2.2656-2.4062 0-2.2539 0.10156-4.6406 1.3047-5.8594 0.21484-0.21875 0.40625-0.43359 0.57812-0.64453 1.2344 0.94531 3.3945 2.3398 5.3945 2.3398 0.37891 0 0.75-0.050781 1.1055-0.16016 0.26172-0.082031 0.44922-0.28516 0.5-0.54297 0.10547-0.54688-0.29687-0.87891-1.6289-1.9727-1.5039-1.2344-3.7773-3.1016-4.4727-4.8164-0.003906-0.003906-0.007812-0.007813-0.007812-0.011719-0.20703-0.49609-0.45703-0.95703-0.6875-1.3789-0.4375-0.79688-0.82031-1.4883-0.76172-2.0977 0.054687-0.57812 0.5-1.1836 0.96875-1.8242 0.14844-0.20312 0.29688-0.41016 0.44141-0.625 0.37891 0.19531 0.81641 0.39453 1.3164 0.58594 0.85938 0.33203 1.7969 0.63281 2.7734 0.91406 3.4727 6.8047 9.5938 9.5156 14.613 9.5156 1.7461 0 3.3594-0.32812 4.6797-0.92188 3.5-1.5742 4.8398-4.7773 3.6055-8.4492 0.91016-0.35156 1.7852-0.76172 2.5938-1.2695 0.19531-0.12109 0.36719-0.24609 0.54688-0.37109 1.6016 4.4961 1.3438 8.8359-0.76953 11.734zm-21.562 2.832c3.2539 1.1328 7.0898 1.875 11.426 2.1914 0.25391 0.019531 0.5 0.019531 0.75 0.027344-0.10547 1.6289-0.60156 2.8867-1.5312 3.6992-1.5508 1.3594-3.8789 1.2891-5.1289 1.125-1.7188-0.22656-3.6016-1.5664-4.6875-3.3398-0.76562-1.25-1.0469-2.5391-0.83203-3.7031zm1.7891 10.656c0.20703 0.074218 0.3125 0.30469 0.23828 0.51172-0.058593 0.16406-0.21094 0.26172-0.375 0.26172-0.046875 0-0.089843-0.007812-0.13672-0.023437-2.207-0.80078-5.6641-2.9023-9.6094-8.375-0.12891-0.17969-0.089844-0.42969 0.089843-0.55859 0.17969-0.12891 0.42969-0.089844 0.55859 0.089844 3.8242 5.3086 7.1328 7.3281 9.2305 8.0898zm-28.688-1.2734c0.13281 0.17578 0.10156 0.42578-0.074219 0.55859-1.6445 1.25-4.5039 2.4023-7.4336 2.4023-0.55859 0-1.1211-0.042969-1.6758-0.13281-2.4844-0.40625-4.4805-1.7031-5.9375-3.8555-0.125-0.18359-0.074218-0.42969 0.10547-0.55469 0.18359-0.125 0.42969-0.074219 0.55469 0.10547 1.3281 1.9609 3.1484 3.1445 5.4023 3.5156 3.4531 0.56641 6.9727-0.95312 8.4961-2.1133 0.17578-0.13281 0.42578-0.10156 0.55859 0.074218zm13.566-70.445c0-0.21875 0.17969-0.39844 0.39844-0.39844 1.2461 0 2.5703 0.53906 3.375 1.375 0.56641 0.58594 0.85938 1.293 0.85938 2.0469l0.015625 0.03125c0.097656 0.19531 0.019531 0.4375-0.17969 0.53516-0.058594 0.027343-0.11719 0.042968-0.17969 0.042968-0.14453 0-0.28906-0.082031-0.35547-0.22266l-0.058594-0.12109c-0.03125-0.058594-0.042968-0.12891-0.042968-0.19531 0.023437-0.57812-0.19141-1.1055-0.63281-1.5664-0.66016-0.6875-1.7578-1.1289-2.7969-1.1289-0.21875 0-0.39844-0.17969-0.39844-0.39844zm1.6445 55.137c-0.21875 0-0.39844-0.17969-0.39844-0.39844 0-1.5156-0.35547-2.2148-0.73438-2.957-0.46484-0.91016-0.94531-1.8555-0.66016-4.1562l0.027343-0.20703c0.21484-1.7461 0.3125-2.9492 0.29297-3.5977-0.011719-0.43359-0.03125-1.0859-0.03125-2.2383 0-0.21875 0.17969-0.39844 0.39844-0.39844s0.39844 0.17969 0.39844 0.39844c0 1.1367 0.019532 1.7578 0.03125 2.2148 0.019532 0.69141-0.078125 1.9336-0.29688 3.7188l-0.027343 0.20703c-0.25391 2.0586 0.13281 2.8164 0.57812 3.6953 0.38281 0.75391 0.82031 1.6094 0.82031 3.3164 0 0.21875-0.17969 0.39844-0.39844 0.39844z"/>
<text x="0.0" y="117.5" font-size="5.0" font-weight="bold" font-family="Arbeit Regular, Helvetica, Arial-Unicode, Arial, Sans-serif" fill="#000000">Created by Ahmad Ishaq</text><text x="0.0" y="122.5" font-size="5.0" font-weight="bold" font-family="Arbeit Regular, Helvetica, Arial-Unicode, Arial, Sans-serif" fill="#000000">from Noun Project</text></svg>